<svg width="150" height="50" fill="none" xmlns="http://www.w3.org/2000/svg">
    <g id="light">
       <path id="balise_out" d="M108.295 31.208L111.879 24.08H112.647L109.055 31.208H108.295ZM112.806 29.128L115.438 27.672L115.454 27.608L113.398 26.184L113.566 25.344L116.366 27.368L116.238 28.016L112.622 30.064L112.806 29.128Z" />
        <path id="development" d="M61.1502 29.312H61.1102C61.0195 29.5573 60.8702 29.7493 60.6622 29.888C60.4595 30.0267 60.2195 30.096 59.9422 30.096C59.4142 30.096 59.0062 29.9067 58.7182 29.528C58.4302 29.144 58.2862 28.608 58.2862 27.92C58.2862 27.232 58.4302 26.6987 58.7182 26.32C59.0062 25.936 59.4142 25.744 59.9422 25.744C60.2195 25.744 60.4595 25.8133 60.6622 25.952C60.8702 26.0853 61.0195 26.2773 61.1102 26.528H61.1502V24.08H62.0222V30H61.1502V29.312ZM60.2062 29.344C60.4728 29.344 60.6968 29.28 60.8782 29.152C61.0595 29.0187 61.1502 28.8453 61.1502 28.632V27.208C61.1502 26.9947 61.0595 26.824 60.8782 26.696C60.6968 26.5627 60.4728 26.496 60.2062 26.496C59.9022 26.496 59.6595 26.5947 59.4782 26.792C59.2968 26.984 59.2062 27.24 59.2062 27.56V28.28C59.2062 28.6 59.2968 28.8587 59.4782 29.056C59.6595 29.248 59.9022 29.344 60.2062 29.344ZM64.9005 30.096C64.6019 30.096 64.3352 30.0453 64.1005 29.944C63.8659 29.8427 63.6659 29.6987 63.5005 29.512C63.3352 29.32 63.2072 29.0907 63.1165 28.824C63.0312 28.552 62.9885 28.2507 62.9885 27.92C62.9885 27.5893 63.0312 27.2907 63.1165 27.024C63.2072 26.752 63.3352 26.5227 63.5005 26.336C63.6659 26.144 63.8659 25.9973 64.1005 25.896C64.3352 25.7947 64.6019 25.744 64.9005 25.744C65.2045 25.744 65.4712 25.7973 65.7005 25.904C65.9352 26.0107 66.1299 26.16 66.2845 26.352C66.4392 26.5387 66.5539 26.7573 66.6285 27.008C66.7085 27.2587 66.7485 27.528 66.7485 27.816V28.144H63.8925V28.28C63.8925 28.6 63.9859 28.864 64.1725 29.072C64.3645 29.2747 64.6365 29.376 64.9885 29.376C65.2445 29.376 65.4605 29.32 65.6365 29.208C65.8125 29.096 65.9619 28.944 66.0845 28.752L66.5965 29.256C66.4419 29.512 66.2179 29.7173 65.9245 29.872C65.6312 30.0213 65.2899 30.096 64.9005 30.096ZM64.9005 26.424C64.7512 26.424 64.6125 26.4507 64.4845 26.504C64.3619 26.5573 64.2552 26.632 64.1645 26.728C64.0792 26.824 64.0125 26.9387 63.9645 27.072C63.9165 27.2053 63.8925 27.352 63.8925 27.512V27.568H65.8285V27.488C65.8285 27.168 65.7459 26.912 65.5805 26.72C65.4152 26.5227 65.1885 26.424 64.9005 26.424ZM68.5475 30L67.1315 25.84H67.9955L68.6275 27.736L69.0515 29.192H69.0995L69.5235 27.736L70.1715 25.84H71.0035L69.5715 30H68.5475ZM73.3068 30.096C73.0081 30.096 72.7414 30.0453 72.5068 29.944C72.2721 29.8427 72.0721 29.6987 71.9068 29.512C71.7414 29.32 71.6134 29.0907 71.5228 28.824C71.4374 28.552 71.3948 28.2507 71.3948 27.92C71.3948 27.5893 71.4374 27.2907 71.5228 27.024C71.6134 26.752 71.7414 26.5227 71.9068 26.336C72.0721 26.144 72.2721 25.9973 72.5068 25.896C72.7414 25.7947 73.0081 25.744 73.3068 25.744C73.6108 25.744 73.8774 25.7973 74.1068 25.904C74.3414 26.0107 74.5361 26.16 74.6908 26.352C74.8454 26.5387 74.9601 26.7573 75.0348 27.008C75.1148 27.2587 75.1548 27.528 75.1548 27.816V28.144H72.2988V28.28C72.2988 28.6 72.3921 28.864 72.5788 29.072C72.7708 29.2747 73.0428 29.376 73.3948 29.376C73.6508 29.376 73.8668 29.32 74.0428 29.208C74.2188 29.096 74.3681 28.944 74.4908 28.752L75.0028 29.256C74.8481 29.512 74.6241 29.7173 74.3308 29.872C74.0374 30.0213 73.6961 30.096 73.3068 30.096ZM73.3068 26.424C73.1574 26.424 73.0188 26.4507 72.8908 26.504C72.7681 26.5573 72.6614 26.632 72.5708 26.728C72.4854 26.824 72.4188 26.9387 72.3708 27.072C72.3228 27.2053 72.2988 27.352 72.2988 27.512V27.568H74.2348V27.488C74.2348 27.168 74.1521 26.912 73.9868 26.72C73.8214 26.5227 73.5948 26.424 73.3068 26.424ZM77.0081 30C76.7094 30 76.4854 29.9253 76.3361 29.776C76.1921 29.6213 76.1201 29.408 76.1201 29.136V24.08H76.9921V29.288H77.5681V30H77.0081ZM80.0333 30.096C79.7453 30.096 79.4813 30.0453 79.2413 29.944C79.0067 29.8427 78.8067 29.6987 78.6413 29.512C78.476 29.32 78.348 29.0907 78.2573 28.824C78.1667 28.552 78.1213 28.2507 78.1213 27.92C78.1213 27.5893 78.1667 27.2907 78.2573 27.024C78.348 26.752 78.476 26.5227 78.6413 26.336C78.8067 26.144 79.0067 25.9973 79.2413 25.896C79.4813 25.7947 79.7453 25.744 80.0333 25.744C80.3213 25.744 80.5827 25.7947 80.8173 25.896C81.0573 25.9973 81.26 26.144 81.4253 26.336C81.5907 26.5227 81.7187 26.752 81.8093 27.024C81.9 27.2907 81.9453 27.5893 81.9453 27.92C81.9453 28.2507 81.9 28.552 81.8093 28.824C81.7187 29.0907 81.5907 29.32 81.4253 29.512C81.26 29.6987 81.0573 29.8427 80.8173 29.944C80.5827 30.0453 80.3213 30.096 80.0333 30.096ZM80.0333 29.376C80.332 29.376 80.572 29.2853 80.7533 29.104C80.9347 28.9173 81.0253 28.64 81.0253 28.272V27.568C81.0253 27.2 80.9347 26.9253 80.7533 26.744C80.572 26.5573 80.332 26.464 80.0333 26.464C79.7347 26.464 79.4947 26.5573 79.3133 26.744C79.132 26.9253 79.0413 27.2 79.0413 27.568V28.272C79.0413 28.64 79.132 28.9173 79.3133 29.104C79.4947 29.2853 79.7347 29.376 80.0333 29.376ZM82.917 25.84H83.789V26.528H83.829C83.9196 26.2773 84.0663 26.0853 84.269 25.952C84.477 25.8133 84.7196 25.744 84.997 25.744C85.525 25.744 85.933 25.936 86.221 26.32C86.509 26.6987 86.653 27.232 86.653 27.92C86.653 28.608 86.509 29.144 86.221 29.528C85.933 29.9067 85.525 30.096 84.997 30.096C84.7196 30.096 84.477 30.0267 84.269 29.888C84.0663 29.7493 83.9196 29.5573 83.829 29.312H83.789V31.6H82.917V25.84ZM84.733 29.344C85.037 29.344 85.2796 29.248 85.461 29.056C85.6423 28.8587 85.733 28.6 85.733 28.28V27.56C85.733 27.24 85.6423 26.984 85.461 26.792C85.2796 26.5947 85.037 26.496 84.733 26.496C84.4663 26.496 84.2423 26.5627 84.061 26.696C83.8796 26.824 83.789 26.9947 83.789 27.208V28.632C83.789 28.8453 83.8796 29.0187 84.061 29.152C84.2423 29.28 84.4663 29.344 84.733 29.344ZM87.6513 30V25.84H88.5233V26.528H88.5633C88.606 26.4213 88.6567 26.32 88.7153 26.224C88.7793 26.128 88.854 26.0453 88.9393 25.976C89.03 25.9013 89.134 25.8453 89.2513 25.808C89.374 25.7653 89.5153 25.744 89.6753 25.744C89.958 25.744 90.2087 25.8133 90.4273 25.952C90.646 26.0907 90.806 26.304 90.9073 26.592H90.9313C91.006 26.3573 91.15 26.1573 91.3633 25.992C91.5767 25.8267 91.8513 25.744 92.1873 25.744C92.6033 25.744 92.926 25.8853 93.1553 26.168C93.3847 26.4453 93.4993 26.8427 93.4993 27.36V30H92.6273V27.464C92.6273 27.144 92.566 26.904 92.4433 26.744C92.3207 26.5787 92.126 26.496 91.8593 26.496C91.7473 26.496 91.6407 26.512 91.5393 26.544C91.438 26.5707 91.3473 26.6133 91.2673 26.672C91.1927 26.7307 91.1313 26.8053 91.0833 26.896C91.0353 26.9867 91.0113 27.0907 91.0113 27.208V30H90.1393V27.464C90.1393 26.8187 89.886 26.496 89.3793 26.496C89.2727 26.496 89.166 26.512 89.0593 26.544C88.958 26.5707 88.8673 26.6133 88.7873 26.672C88.7073 26.7307 88.6433 26.8053 88.5953 26.896C88.5473 26.9867 88.5233 27.0907 88.5233 27.208V30H87.6513ZM96.338 30.096C96.0394 30.096 95.7727 30.0453 95.538 29.944C95.3034 29.8427 95.1034 29.6987 94.938 29.512C94.7727 29.32 94.6447 29.0907 94.554 28.824C94.4687 28.552 94.426 28.2507 94.426 27.92C94.426 27.5893 94.4687 27.2907 94.554 27.024C94.6447 26.752 94.7727 26.5227 94.938 26.336C95.1034 26.144 95.3034 25.9973 95.538 25.896C95.7727 25.7947 96.0394 25.744 96.338 25.744C96.642 25.744 96.9087 25.7973 97.138 25.904C97.3727 26.0107 97.5674 26.16 97.722 26.352C97.8767 26.5387 97.9914 26.7573 98.066 27.008C98.146 27.2587 98.186 27.528 98.186 27.816V28.144H95.33V28.28C95.33 28.6 95.4234 28.864 95.61 29.072C95.802 29.2747 96.074 29.376 96.426 29.376C96.682 29.376 96.898 29.32 97.074 29.208C97.25 29.096 97.3994 28.944 97.522 28.752L98.034 29.256C97.8794 29.512 97.6554 29.7173 97.362 29.872C97.0687 30.0213 96.7274 30.096 96.338 30.096ZM96.338 26.424C96.1887 26.424 96.05 26.4507 95.922 26.504C95.7994 26.5573 95.6927 26.632 95.602 26.728C95.5167 26.824 95.45 26.9387 95.402 27.072C95.354 27.2053 95.33 27.352 95.33 27.512V27.568H97.266V27.488C97.266 27.168 97.1834 26.912 97.018 26.72C96.8527 26.5227 96.626 26.424 96.338 26.424ZM99.1513 30V25.84H100.023V26.528H100.063C100.154 26.304 100.29 26.1173 100.471 25.968C100.658 25.8187 100.911 25.744 101.231 25.744C101.658 25.744 101.989 25.8853 102.223 26.168C102.463 26.4453 102.583 26.8427 102.583 27.36V30H101.711V27.472C101.711 26.8213 101.45 26.496 100.927 26.496C100.815 26.496 100.703 26.512 100.591 26.544C100.485 26.5707 100.389 26.6133 100.303 26.672C100.218 26.7307 100.149 26.8053 100.095 26.896C100.047 26.9867 100.023 27.0933 100.023 27.216V30H99.1513ZM104.944 30C104.64 30 104.411 29.9227 104.256 29.768C104.101 29.608 104.024 29.384 104.024 29.096V26.552H103.376V25.84H103.728C103.872 25.84 103.971 25.808 104.024 25.744C104.083 25.68 104.112 25.576 104.112 25.432V24.704H104.896V25.84H105.768V26.552H104.896V29.288H105.704V30H104.944Z" />
        <path id="underscore" d="M53.4978 31.408V30.656H57.5058V31.408H53.4978Z" />
        <path id="cyril_dias" d="M19.7164 30.096C19.4177 30.096 19.151 30.0453 18.9164 29.944C18.6817 29.8427 18.4844 29.6987 18.3244 29.512C18.1644 29.32 18.0417 29.0907 17.9564 28.824C17.871 28.552 17.8284 28.2507 17.8284 27.92C17.8284 27.5893 17.871 27.2907 17.9564 27.024C18.0417 26.752 18.1644 26.5227 18.3244 26.336C18.4844 26.144 18.6817 25.9973 18.9164 25.896C19.151 25.7947 19.4177 25.744 19.7164 25.744C20.1324 25.744 20.4737 25.8373 20.7404 26.024C21.007 26.2107 21.2017 26.4587 21.3244 26.768L20.6044 27.104C20.5457 26.912 20.4417 26.76 20.2924 26.648C20.1484 26.5307 19.9564 26.472 19.7164 26.472C19.3964 26.472 19.1537 26.5733 18.9884 26.776C18.8284 26.9733 18.7484 27.232 18.7484 27.552V28.296C18.7484 28.616 18.8284 28.8773 18.9884 29.08C19.1537 29.2773 19.3964 29.376 19.7164 29.376C19.9724 29.376 20.175 29.3147 20.3244 29.192C20.479 29.064 20.6017 28.896 20.6924 28.688L21.3564 29.04C21.2177 29.3813 21.0097 29.6427 20.7324 29.824C20.455 30.0053 20.1164 30.096 19.7164 30.096ZM24.7385 25.84H25.5785L23.8265 30.824C23.7785 30.9627 23.7225 31.08 23.6585 31.176C23.5998 31.2773 23.5278 31.3573 23.4425 31.416C23.3625 31.48 23.2638 31.5253 23.1465 31.552C23.0292 31.584 22.8905 31.6 22.7305 31.6H22.2265V30.888H22.9305L23.1705 30.184L21.6585 25.84H22.5305L23.3625 28.288L23.6025 29.192H23.6425L23.9065 28.288L24.7385 25.84ZM26.2959 30V25.84H27.1679V26.64H27.2079C27.2665 26.4267 27.3892 26.24 27.5759 26.08C27.7625 25.92 28.0212 25.84 28.3519 25.84H28.5839V26.68H28.2399C27.8932 26.68 27.6265 26.736 27.4399 26.848C27.2585 26.96 27.1679 27.1253 27.1679 27.344V30H26.2959ZM29.7984 25.096C29.617 25.096 29.4837 25.0533 29.3984 24.968C29.3184 24.8827 29.2784 24.7733 29.2784 24.64V24.504C29.2784 24.3707 29.3184 24.2613 29.3984 24.176C29.4837 24.0907 29.617 24.048 29.7984 24.048C29.9797 24.048 30.1104 24.0907 30.1904 24.176C30.2704 24.2613 30.3104 24.3707 30.3104 24.504V24.64C30.3104 24.7733 30.2704 24.8827 30.1904 24.968C30.1104 25.0533 29.9797 25.096 29.7984 25.096ZM29.3584 25.84H30.2304V30H29.3584V25.84ZM32.3636 30C32.0649 30 31.8409 29.9253 31.6916 29.776C31.5476 29.6213 31.4756 29.408 31.4756 29.136V24.08H32.3476V29.288H32.9236V30H32.3636ZM33.5213 31.408V30.656H37.5293V31.408H33.5213ZM40.5603 29.312H40.5203C40.4296 29.5573 40.2803 29.7493 40.0723 29.888C39.8696 30.0267 39.6296 30.096 39.3523 30.096C38.8243 30.096 38.4163 29.9067 38.1283 29.528C37.8403 29.144 37.6963 28.608 37.6963 27.92C37.6963 27.232 37.8403 26.6987 38.1283 26.32C38.4163 25.936 38.8243 25.744 39.3523 25.744C39.6296 25.744 39.8696 25.8133 40.0723 25.952C40.2803 26.0853 40.4296 26.2773 40.5203 26.528H40.5603V24.08H41.4323V30H40.5603V29.312ZM39.6163 29.344C39.883 29.344 40.107 29.28 40.2883 29.152C40.4696 29.0187 40.5603 28.8453 40.5603 28.632V27.208C40.5603 26.9947 40.4696 26.824 40.2883 26.696C40.107 26.5627 39.883 26.496 39.6163 26.496C39.3123 26.496 39.0696 26.5947 38.8883 26.792C38.707 26.984 38.6163 27.24 38.6163 27.56V28.28C38.6163 28.6 38.707 28.8587 38.8883 29.056C39.0696 29.248 39.3123 29.344 39.6163 29.344ZM43.1187 25.096C42.9374 25.096 42.804 25.0533 42.7187 24.968C42.6387 24.8827 42.5987 24.7733 42.5987 24.64V24.504C42.5987 24.3707 42.6387 24.2613 42.7187 24.176C42.804 24.0907 42.9374 24.048 43.1187 24.048C43.3 24.048 43.4307 24.0907 43.5107 24.176C43.5907 24.2613 43.6307 24.3707 43.6307 24.504V24.64C43.6307 24.7733 43.5907 24.8827 43.5107 24.968C43.4307 25.0533 43.3 25.096 43.1187 25.096ZM42.6787 25.84H43.5507V30H42.6787V25.84ZM47.8439 30C47.6145 30 47.4385 29.936 47.3159 29.808C47.1932 29.6747 47.1185 29.5067 47.0919 29.304H47.0519C46.9719 29.5653 46.8252 29.7627 46.6119 29.896C46.3985 30.0293 46.1399 30.096 45.8359 30.096C45.4039 30.096 45.0705 29.984 44.8359 29.76C44.6065 29.536 44.4919 29.2347 44.4919 28.856C44.4919 28.44 44.6412 28.128 44.9399 27.92C45.2439 27.712 45.6865 27.608 46.2679 27.608H47.0199V27.256C47.0199 27 46.9505 26.8027 46.8119 26.664C46.6732 26.5253 46.4572 26.456 46.1639 26.456C45.9185 26.456 45.7185 26.5093 45.5639 26.616C45.4092 26.7227 45.2785 26.8587 45.1719 27.024L44.6519 26.552C44.7905 26.3173 44.9852 26.1253 45.2359 25.976C45.4865 25.8213 45.8145 25.744 46.2199 25.744C46.7585 25.744 47.1719 25.8693 47.4599 26.12C47.7479 26.3707 47.8919 26.7307 47.8919 27.2V29.288H48.3319V30H47.8439ZM46.0839 29.432C46.3559 29.432 46.5799 29.3733 46.7559 29.256C46.9319 29.1333 47.0199 28.9707 47.0199 28.768V28.168H46.2839C45.6812 28.168 45.3799 28.3547 45.3799 28.728V28.872C45.3799 29.0587 45.4412 29.2 45.5639 29.296C45.6919 29.3867 45.8652 29.432 46.0839 29.432ZM50.5065 30.096C50.1118 30.096 49.7812 30.0267 49.5145 29.888C49.2478 29.7493 49.0158 29.5573 48.8185 29.312L49.3785 28.8C49.5332 28.9867 49.7038 29.1333 49.8905 29.24C50.0825 29.3413 50.3038 29.392 50.5545 29.392C50.8105 29.392 50.9998 29.344 51.1225 29.248C51.2505 29.1467 51.3145 29.008 51.3145 28.832C51.3145 28.6987 51.2692 28.5867 51.1785 28.496C51.0932 28.4 50.9412 28.3387 50.7225 28.312L50.3385 28.264C49.9118 28.2107 49.5758 28.088 49.3305 27.896C49.0905 27.6987 48.9705 27.408 48.9705 27.024C48.9705 26.8213 49.0078 26.6427 49.0825 26.488C49.1572 26.328 49.2612 26.1947 49.3945 26.088C49.5332 25.976 49.6958 25.8907 49.8825 25.832C50.0745 25.7733 50.2852 25.744 50.5145 25.744C50.8878 25.744 51.1918 25.8027 51.4265 25.92C51.6665 26.0373 51.8798 26.2 52.0665 26.408L51.5305 26.92C51.4238 26.792 51.2825 26.6827 51.1065 26.592C50.9358 26.496 50.7385 26.448 50.5145 26.448C50.2745 26.448 50.0958 26.496 49.9785 26.592C49.8665 26.688 49.8105 26.8133 49.8105 26.968C49.8105 27.128 49.8612 27.248 49.9625 27.328C50.0638 27.408 50.2265 27.4667 50.4505 27.504L50.8345 27.552C51.2932 27.6213 51.6265 27.7573 51.8345 27.96C52.0478 28.1573 52.1545 28.424 52.1545 28.76C52.1545 28.9627 52.1145 29.1467 52.0345 29.312C51.9598 29.472 51.8505 29.6107 51.7065 29.728C51.5625 29.8453 51.3892 29.936 51.1865 30C50.9838 30.064 50.7572 30.096 50.5065 30.096Z" />
        <path id="balise_in" d="M11.8696 28.008L12.0056 27.36L15.6136 25.344L15.4296 26.28L12.8056 27.704L12.7896 27.768L14.8456 29.224L14.6696 30.064L11.8696 28.008Z" />
    </g>
</svg>